<svg xmlns="http://www.w3.org/2000/svg" viewBox="0 0 1280 640" width="1280" height="640">
  <defs>
    <linearGradient id="bg" x1="0" y1="0" x2="0" y2="1">
      <stop offset="0%" stop-color="#0c0a1d"/>
      <stop offset="100%" stop-color="#162032"/>
    </linearGradient>
  </defs>

  <!-- Background -->
  <rect width="1280" height="640" fill="url(#bg)"/>

  <!-- Logo centered, slightly smaller -->
  <g transform="translate(385, 110) scale(1.0)">
    <rect x="16" y="0" width="72" height="16" fill="#6EE7B7"/>
    <rect x="192" y="0" width="32" height="16" fill="#6EE7B7"/>
    <rect x="240" y="0" width="32" height="16" fill="#C4B5FD"/>
    <rect x="8" y="18" width="24" height="16" fill="#6EE7B7"/>
    <rect x="32" y="18" width="40" height="16" fill="#6EE7B7" opacity="0.4"/>
    <rect x="72" y="18" width="24" height="16" fill="#6EE7B7"/>
    <rect x="184" y="18" width="16" height="16" fill="#6EE7B7" opacity="0.4"/>
    <rect x="200" y="18" width="24" height="16" fill="#6EE7B7"/>
    <rect x="232" y="18" width="16" height="16" fill="#C4B5FD" opacity="0.4"/>
    <rect x="248" y="18" width="24" height="16" fill="#C4B5FD"/>
    <rect x="0" y="36" width="8" height="16" fill="#6EE7B7" opacity="0.4"/>
    <rect x="8" y="36" width="24" height="16" fill="#6EE7B7"/>
    <rect x="64" y="36" width="24" height="16" fill="#6EE7B7" opacity="0.4"/>
    <rect x="104" y="36" width="40" height="16" fill="#6EE7B7"/>
    <rect x="152" y="36" width="32" height="16" fill="#6EE7B7"/>
    <rect x="192" y="36" width="8" height="16" fill="#6EE7B7" opacity="0.4"/>
    <rect x="200" y="36" width="24" height="16" fill="#6EE7B7"/>
    <rect x="240" y="36" width="8" height="16" fill="#C4B5FD" opacity="0.4"/>
    <rect x="248" y="36" width="24" height="16" fill="#C4B5FD"/>
    <rect x="296" y="36" width="48" height="16" fill="#C4B5FD"/>
    <rect x="376" y="36" width="56" height="16" fill="#C4B5FD"/>
    <rect x="448" y="36" width="48" height="16" fill="#C4B5FD"/>
    <rect x="0" y="54" width="16" height="16" fill="#6EE7B7" opacity="0.4"/>
    <rect x="16" y="54" width="72" height="16" fill="#6EE7B7"/>
    <rect x="96" y="54" width="16" height="16" fill="#6EE7B7" opacity="0.4"/>
    <rect x="112" y="54" width="24" height="16" fill="#6EE7B7"/>
    <rect x="144" y="54" width="8" height="16" fill="#6EE7B7" opacity="0.4"/>
    <rect x="152" y="54" width="24" height="16" fill="#6EE7B7"/>
    <rect x="192" y="54" width="8" height="16" fill="#6EE7B7" opacity="0.4"/>
    <rect x="200" y="54" width="24" height="16" fill="#6EE7B7"/>
    <rect x="240" y="54" width="8" height="16" fill="#C4B5FD" opacity="0.4"/>
    <rect x="248" y="54" width="24" height="16" fill="#C4B5FD"/>
    <rect x="288" y="54" width="40" height="16" fill="#C4B5FD" opacity="0.4"/>
    <rect x="328" y="54" width="24" height="16" fill="#C4B5FD"/>
    <rect x="368" y="54" width="24" height="16" fill="#C4B5FD"/>
    <rect x="392" y="54" width="16" height="16" fill="#C4B5FD" opacity="0.4"/>
    <rect x="408" y="54" width="24" height="16" fill="#C4B5FD"/>
    <rect x="440" y="54" width="24" height="16" fill="#C4B5FD"/>
    <rect x="464" y="54" width="16" height="16" fill="#C4B5FD" opacity="0.4"/>
    <rect x="480" y="54" width="24" height="16" fill="#C4B5FD"/>
    <rect x="8" y="72" width="64" height="16" fill="#6EE7B7" opacity="0.4"/>
    <rect x="72" y="72" width="24" height="16" fill="#6EE7B7"/>
    <rect x="104" y="72" width="8" height="16" fill="#6EE7B7" opacity="0.4"/>
    <rect x="112" y="72" width="24" height="16" fill="#6EE7B7"/>
    <rect x="144" y="72" width="8" height="16" fill="#6EE7B7" opacity="0.4"/>
    <rect x="152" y="72" width="24" height="16" fill="#6EE7B7"/>
    <rect x="192" y="72" width="8" height="16" fill="#6EE7B7" opacity="0.4"/>
    <rect x="200" y="72" width="24" height="16" fill="#6EE7B7"/>
    <rect x="240" y="72" width="8" height="16" fill="#C4B5FD" opacity="0.4"/>
    <rect x="248" y="72" width="24" height="16" fill="#C4B5FD"/>
    <rect x="296" y="72" width="56" height="16" fill="#C4B5FD"/>
    <rect x="360" y="72" width="8" height="16" fill="#C4B5FD" opacity="0.4"/>
    <rect x="368" y="72" width="24" height="16" fill="#C4B5FD"/>
    <rect x="400" y="72" width="8" height="16" fill="#C4B5FD" opacity="0.4"/>
    <rect x="408" y="72" width="24" height="16" fill="#C4B5FD"/>
    <rect x="432" y="72" width="8" height="16" fill="#C4B5FD" opacity="0.4"/>
    <rect x="440" y="72" width="24" height="16" fill="#C4B5FD"/>
    <rect x="472" y="72" width="8" height="16" fill="#C4B5FD" opacity="0.4"/>
    <rect x="480" y="72" width="24" height="16" fill="#C4B5FD"/>
    <rect x="8" y="90" width="24" height="16" fill="#6EE7B7"/>
    <rect x="64" y="90" width="8" height="16" fill="#6EE7B7" opacity="0.4"/>
    <rect x="72" y="90" width="24" height="16" fill="#6EE7B7"/>
    <rect x="104" y="90" width="8" height="16" fill="#6EE7B7" opacity="0.4"/>
    <rect x="112" y="90" width="24" height="16" fill="#6EE7B7"/>
    <rect x="144" y="90" width="8" height="16" fill="#6EE7B7" opacity="0.4"/>
    <rect x="152" y="90" width="24" height="16" fill="#6EE7B7"/>
    <rect x="192" y="90" width="8" height="16" fill="#6EE7B7" opacity="0.4"/>
    <rect x="200" y="90" width="24" height="16" fill="#6EE7B7"/>
    <rect x="240" y="90" width="8" height="16" fill="#C4B5FD" opacity="0.4"/>
    <rect x="248" y="90" width="24" height="16" fill="#C4B5FD"/>
    <rect x="288" y="90" width="24" height="16" fill="#C4B5FD"/>
    <rect x="312" y="90" width="16" height="16" fill="#C4B5FD" opacity="0.4"/>
    <rect x="328" y="90" width="24" height="16" fill="#C4B5FD"/>
    <rect x="360" y="90" width="8" height="16" fill="#C4B5FD" opacity="0.4"/>
    <rect x="368" y="90" width="24" height="16" fill="#C4B5FD"/>
    <rect x="400" y="90" width="8" height="16" fill="#C4B5FD" opacity="0.4"/>
    <rect x="408" y="90" width="24" height="16" fill="#C4B5FD"/>
    <rect x="432" y="90" width="8" height="16" fill="#C4B5FD" opacity="0.4"/>
    <rect x="440" y="90" width="24" height="16" fill="#C4B5FD"/>
    <rect x="472" y="90" width="8" height="16" fill="#C4B5FD" opacity="0.4"/>
    <rect x="480" y="90" width="24" height="16" fill="#C4B5FD"/>
    <rect x="0" y="108" width="16" height="16" fill="#6EE7B7" opacity="0.4"/>
    <rect x="16" y="108" width="72" height="16" fill="#6EE7B7"/>
    <rect x="104" y="108" width="16" height="16" fill="#6EE7B7" opacity="0.4"/>
    <rect x="120" y="108" width="56" height="16" fill="#6EE7B7"/>
    <rect x="192" y="108" width="40" height="16" fill="#6EE7B7"/>
    <rect x="240" y="108" width="40" height="16" fill="#C4B5FD"/>
    <rect x="280" y="108" width="16" height="16" fill="#C4B5FD" opacity="0.4"/>
    <rect x="296" y="108" width="64" height="16" fill="#C4B5FD"/>
    <rect x="360" y="108" width="16" height="16" fill="#C4B5FD" opacity="0.4"/>
    <rect x="376" y="108" width="56" height="16" fill="#C4B5FD"/>
    <rect x="432" y="108" width="16" height="16" fill="#C4B5FD" opacity="0.4"/>
    <rect x="448" y="108" width="48" height="16" fill="#C4B5FD"/>
    <rect x="8" y="126" width="72" height="16" fill="#6EE7B7" opacity="0.4"/>
    <rect x="112" y="126" width="40" height="16" fill="#6EE7B7" opacity="0.4"/>
    <rect x="152" y="126" width="24" height="16" fill="#6EE7B7"/>
    <rect x="184" y="126" width="40" height="16" fill="#6EE7B7" opacity="0.4"/>
    <rect x="232" y="126" width="40" height="16" fill="#C4B5FD" opacity="0.4"/>
    <rect x="288" y="126" width="64" height="16" fill="#C4B5FD" opacity="0.4"/>
    <rect x="368" y="126" width="40" height="16" fill="#C4B5FD" opacity="0.4"/>
    <rect x="408" y="126" width="24" height="16" fill="#C4B5FD"/>
    <rect x="440" y="126" width="48" height="16" fill="#C4B5FD" opacity="0.4"/>
    <rect x="112" y="144" width="24" height="16" fill="#6EE7B7"/>
    <rect x="144" y="144" width="8" height="16" fill="#6EE7B7" opacity="0.4"/>
    <rect x="152" y="144" width="24" height="16" fill="#6EE7B7"/>
    <rect x="368" y="144" width="24" height="16" fill="#C4B5FD"/>
    <rect x="400" y="144" width="8" height="16" fill="#C4B5FD" opacity="0.4"/>
    <rect x="408" y="144" width="24" height="16" fill="#C4B5FD"/>
    <rect x="104" y="162" width="16" height="16" fill="#6EE7B7" opacity="0.4"/>
    <rect x="120" y="162" width="48" height="16" fill="#6EE7B7"/>
    <rect x="360" y="162" width="16" height="16" fill="#C4B5FD" opacity="0.4"/>
    <rect x="376" y="162" width="48" height="16" fill="#C4B5FD"/>
    <rect x="112" y="180" width="48" height="16" fill="#6EE7B7" opacity="0.4"/>
    <rect x="368" y="180" width="48" height="16" fill="#C4B5FD" opacity="0.4"/>
  </g>

  <!-- Central tagline -->
  <text x="640" y="410" text-anchor="middle" font-family="system-ui, -apple-system, 'Segoe UI', sans-serif" font-size="36" font-weight="500" fill="#e2e8f0">
    One library. Every AI coding tool.
  </text>

  <!-- Supporting line -->
  <text x="640" y="455" text-anchor="middle" font-family="system-ui, -apple-system, 'Segoe UI', sans-serif" font-size="22" font-weight="400" fill="#94a3b8">
    Add once, install anywhere. Rules, skills, agents, and configs.
  </text>

  <!-- Horizontal divider -->
  <rect x="565" y="480" width="150" height="2" rx="1" fill="#6EE7B7" opacity="0.3"/>

  <!-- Tool names row -->
  <text x="640" y="525" text-anchor="middle" font-family="ui-monospace, 'SF Mono', monospace" font-size="16" fill="#64748b" letter-spacing="2">
    Claude Code  |  Cursor  |  Gemini CLI  |  Copilot  |  Amp  |  Windsurf
  </text>

  <!-- Version badge bottom-right -->
  <rect x="1140" y="590" width="100" height="28" rx="14" fill="#1e293b" stroke="#334155" stroke-width="1"/>
  <text x="1190" y="609" text-anchor="middle" font-family="ui-monospace, 'SF Mono', monospace" font-size="13" fill="#94a3b8">v0.7.0</text>
</svg>